<svg id="Capa_1" enable-background="new 0 0 512 512" height="512" viewBox="0 0 512 512" width="512" xmlns="http://www.w3.org/2000/svg"><g><g><path d="m318.319 512h-124.638c-24.649 0-44.702-20.054-44.702-44.702v-104.276h-104.277c-24.649 0-44.702-20.054-44.702-44.703v-124.638c0-24.648 20.053-44.702 44.702-44.702h104.276v-104.277c0-24.648 20.054-44.702 44.703-44.702h124.639c24.649 0 44.702 20.054 44.702 44.702v104.276h104.276c24.649 0 44.702 20.054 44.702 44.702v124.639c0 24.648-20.053 44.702-44.702 44.702h-104.277v104.276c0 24.649-20.053 44.703-44.702 44.703zm-273.617-343.021c-13.621 0-24.702 11.081-24.702 24.702v124.639c0 13.621 11.081 24.702 24.702 24.702h114.276c5.523 0 10 4.477 10 10v114.276c0 13.621 11.082 24.702 24.702 24.702h124.639c13.621 0 24.702-11.081 24.702-24.702v-114.276c0-5.523 4.477-10 10-10h114.276c13.621 0 24.702-11.081 24.702-24.702v-124.639c0-13.621-11.082-24.702-24.702-24.702h-114.276c-5.523 0-10-4.477-10-10v-114.277c0-13.621-11.081-24.702-24.702-24.702h-124.638c-13.621 0-24.702 11.081-24.702 24.702v114.276c0 5.523-4.477 10-10 10h-114.277z" fill="#020288"/></g><g><path d="m204.978 456v-148.978h-148.978v-102.043h148.978v-148.979h102.043v148.979h148.979v102.043h-148.979v148.978z" fill="#a4fcc4"/></g></g></svg>